<svg width="360" height="77" viewBox="0 0 360 77" fill="none" xmlns="http://www.w3.org/2000/svg">
<g clip-path="url(#clip0_1911_3054)">
<path fill-rule="evenodd" clip-rule="evenodd" d="M53.6321 33.7992C55.2082 32.8141 56.85 31.9385 58.2948 30.8439C60.4279 29.2734 62.4536 27.5621 64.3585 25.7215C65.3005 24.7875 66.0093 23.6449 66.4276 22.3861C66.846 21.1273 66.962 19.7877 66.7665 18.4757C66.7665 17.9941 66.5257 17.5344 66.3725 16.8558C63.9864 22.1315 59.8053 25.4151 55.4271 28.633C56.4779 27.6479 57.6162 26.7066 58.5575 25.634C60.148 23.8877 61.6112 22.0295 62.9356 20.0737C63.8503 18.5955 64.4163 16.9284 64.5908 15.1988C64.7653 13.4693 64.5436 11.7227 63.9426 10.0916C63.9001 9.97835 63.8489 9.86857 63.7894 9.76324C63.746 9.75439 63.7014 9.75439 63.658 9.76324C62.2397 14.796 59.5394 19.3745 55.8212 23.0509L56.6968 21.8907C58.9837 18.9269 60.6108 15.5086 61.469 11.8647C61.8949 9.6739 61.6408 7.40523 60.7409 5.36285C59.841 3.32047 58.3383 1.602 56.4341 0.437813C56.1015 0.252624 55.749 0.105748 55.3834 0C56.5034 1.48834 57.2537 3.22153 57.5724 5.05674C57.9517 6.93516 57.9534 8.87025 57.5776 10.7493C57.2018 12.6284 56.4559 14.414 55.3834 16.0021C52.5499 19.699 49.0898 22.8702 45.1604 25.3713C42.424 27.0725 40.0568 29.3057 38.1992 31.9385C37.7836 32.5417 37.5071 33.2297 37.3898 33.9527C37.2724 34.6758 37.3171 35.4159 37.5206 36.1196C37.7847 37.0319 38.2316 37.8809 38.834 38.6151C39.3764 39.2773 39.6924 40.0958 39.7357 40.9507C39.779 41.8055 39.5474 42.6518 39.0748 43.3654C38.8395 43.8532 38.4949 44.2801 38.0678 44.6132C37.7372 44.7946 37.4839 45.0901 37.355 45.4445C37.2261 45.7989 37.2305 46.1881 37.3673 46.5395C37.3673 46.649 37.3673 46.7585 37.3673 46.846C37.6957 49.4729 38.046 52.0998 38.3743 54.7267C38.375 54.8502 38.413 54.9706 38.4833 55.0722C38.5536 55.1737 38.653 55.2517 38.7683 55.2958C39.2502 55.488 39.6571 55.8306 39.9284 56.2728C40.1998 56.7149 40.3212 57.2328 40.2744 57.7494C40.2277 58.266 40.0153 58.7538 39.669 59.14C39.3227 59.5262 38.8609 59.7903 38.3524 59.8929H38.046C37.5271 59.9337 37.0088 59.8069 36.5674 59.531C36.126 59.2551 35.7849 58.8448 35.5942 58.3605C35.3942 57.8725 35.3631 57.3316 35.5059 56.8238C35.6487 56.3161 35.9572 55.8707 36.3823 55.5585C36.4842 55.4855 36.563 55.3849 36.6096 55.2685C36.6561 55.1522 36.6684 55.0249 36.645 54.9018C36.2947 52.2749 35.9663 49.648 35.638 47.0211C35.638 47.0211 35.638 46.8241 35.638 46.7366C35.6273 46.5543 35.6273 46.3716 35.638 46.1893C35.6547 45.9832 35.598 45.7778 35.4778 45.6095C35.3576 45.4412 35.1817 45.3209 34.9813 45.2699C34.607 45.1008 34.2543 44.8877 33.9305 44.6351C33.0678 44.1108 32.4213 43.295 32.1081 42.3353C31.7949 41.3756 31.8356 40.3354 32.223 39.4032C32.3499 39.1608 32.4455 38.9034 32.5076 38.637C32.8357 37.7522 32.9193 36.7954 32.7499 35.867C32.5804 34.9387 32.164 34.0732 31.5444 33.3614L31.2598 33.0768C28.7827 30.9502 25.8902 29.3623 22.7663 28.4141C18.3268 26.9602 14.1774 24.7373 10.5075 21.8469C9.04949 20.5674 7.86105 19.0101 7.01162 17.2661C6.16218 15.5222 5.66877 13.6264 5.56021 11.6896C5.40989 9.83986 5.69478 7.98061 6.39206 6.26073C6.06261 6.44383 5.76049 6.67226 5.49454 6.93934C3.93664 8.54927 2.91028 10.5985 2.55404 12.8103C2.19781 15.0221 2.52886 17.2899 3.50249 19.3076C5.24701 22.61 7.68072 25.4991 10.6388 27.7792L11.6239 28.6111C7.08557 25.9768 3.31292 22.2041 0.678596 17.6658C0.678596 17.6658 0.678596 17.6658 0.678596 17.7971C0.668198 17.9136 0.668198 18.0308 0.678596 18.1474C0.507457 19.8775 0.73186 21.624 1.33484 23.2547C1.93783 24.8854 2.90362 26.3577 4.15921 27.5603C5.95729 29.163 7.8746 30.6265 9.89456 31.9385C11.0767 32.7484 12.412 33.3614 13.6816 34.1275C8.71247 32.0917 3.78707 29.9683 0.175111 25.3713C0.140523 25.9326 0.140523 26.4955 0.175111 27.0569C0.311315 28.3732 0.757201 29.6387 1.4763 30.7497C2.1954 31.8606 3.16728 32.7856 4.31245 33.4489C6.61219 34.7519 8.99627 35.9001 11.4488 36.8858C13.1344 37.5863 14.9513 38.0022 16.7026 38.5713C11.7553 37.7395 6.7642 36.9952 2.42985 33.9743C2.42985 34.1713 2.42985 34.3246 2.42985 34.4559C2.83999 36.1319 3.73615 37.6493 5.0058 38.8177C6.27544 39.9861 7.86198 40.7533 9.56621 41.0231C11.9523 41.4171 14.3603 41.6579 16.7463 41.9425C18.3663 42.1395 20.0081 42.2709 21.628 42.4241C21.6388 42.5333 21.6388 42.6433 21.628 42.7525L11.2518 42.4679L11.7991 43.0589C13.0935 44.3318 14.8221 45.067 16.6369 45.1167C18.4976 45.1167 20.3802 44.8321 22.2409 44.6351C24.1622 44.2889 26.1438 44.6464 27.823 45.642C29.2021 46.6052 29.6618 46.8898 29.9026 48.7724L27.9981 60.5277C27.9981 60.8779 27.9981 61.0749 28.3922 61.1625C30.2902 61.5912 32.0419 62.5123 33.4708 63.8332C35.939 66.1306 37.6686 69.1098 38.44 72.3924C38.7398 73.1841 38.7781 74.051 38.5494 74.8661C38.4655 75.2812 38.5498 75.7126 38.7838 76.0656C39.0177 76.4185 39.3822 76.6642 39.7972 76.7487C40.0282 76.8006 40.2682 76.7959 40.497 76.7349C40.7257 76.6739 40.9362 76.5584 41.1106 76.3984C41.4032 76.1739 41.6104 75.8562 41.6979 75.498C41.7855 75.1398 41.7482 74.7624 41.5922 74.4283C41.2797 73.8183 41.1148 73.1434 41.1106 72.4581C40.9907 70.1551 41.3177 67.8506 42.0738 65.672C43.0362 62.7261 45.0879 60.2593 47.8092 58.7764C48.2032 58.5575 48.2689 58.3824 48.0719 57.9665C46.4812 54.3472 44.8977 50.7134 43.3216 47.0649C43.1721 46.415 43.2077 45.7362 43.4244 45.1056C43.641 44.4749 44.0301 43.9175 44.5475 43.4967C45.932 42.1265 47.7514 41.2826 49.6918 41.1107C51.5552 40.909 53.4047 40.5946 55.2301 40.1694C56.9832 39.6817 58.4807 38.537 59.4112 36.9733C59.5645 36.7106 59.6958 36.4261 59.7834 36.2728L49.9107 39.0967L49.8012 38.7684C51.3336 38.1992 52.8878 37.6738 54.3983 37.0828C56.5873 36.2072 58.9296 35.3753 61.1187 34.3902C62.7077 33.7192 64.0582 32.586 64.995 31.1378C65.9319 29.6896 66.4118 27.9932 66.3725 26.2688C66.3883 26.1087 66.3883 25.9473 66.3725 25.7872C62.87 29.7713 58.2291 31.7415 53.6321 33.7992Z" fill="white"/>
<path fill-rule="evenodd" clip-rule="evenodd" d="M41.7016 75.0849C41.7275 75.2933 41.712 75.5048 41.6562 75.7072C41.6003 75.9097 41.5051 76.0991 41.3761 76.2648C41.247 76.4305 41.0865 76.5691 40.9039 76.6727C40.7212 76.7764 40.52 76.8431 40.3115 76.869C40.1031 76.8948 39.8916 76.8794 39.6892 76.8235C39.4867 76.7677 39.2973 76.6725 39.1316 76.5434C38.797 76.2827 38.5797 75.8998 38.5274 75.4789C38.4752 75.058 38.5923 74.6335 38.853 74.299C39.1137 73.9644 39.4966 73.7471 39.9175 73.6948C40.3384 73.6426 40.7629 73.7597 41.0974 74.0203C41.432 74.281 41.6493 74.6639 41.7016 75.0849Z" fill="#FF0000"/>
<path fill-rule="evenodd" clip-rule="evenodd" d="M39.4032 57.3097C39.4437 57.623 39.3905 57.9412 39.2503 58.2242C39.1101 58.5072 38.8891 58.7423 38.6154 58.8998C38.3416 59.0574 38.0274 59.1302 37.7122 59.1093C37.3971 59.0883 37.0952 58.9744 36.8448 58.782C36.5943 58.5895 36.4065 58.3272 36.305 58.0281C36.2036 57.729 36.193 57.4066 36.2747 57.1015C36.3564 56.7964 36.5266 56.5224 36.764 56.314C37.0013 56.1056 37.295 55.9722 37.6081 55.9306C37.8166 55.903 38.0285 55.9167 38.2316 55.9711C38.4348 56.0255 38.6252 56.1194 38.7919 56.2476C38.9587 56.3757 39.0985 56.5355 39.2034 56.7177C39.3083 56.9 39.3762 57.1012 39.4032 57.3097Z" fill="#FF0000"/>
<path d="M194.674 63.1105C190.117 64.4811 185.452 65.4624 180.729 66.0438C179.141 65.9477 177.589 65.5271 176.17 64.8079C174.751 64.0888 173.494 63.0865 172.477 61.8627C170.917 59.3929 169.971 56.5857 169.718 53.6756C169.302 49.4288 169.193 47.787 170.769 45.3353C171.995 43.4308 175.038 42.2925 178.869 42.1392C182.699 41.986 190.383 41.8547 192.791 41.7671L191.872 31.6755C187.362 31.5661 175.716 31.8068 172.783 32.0695C166.982 32.6168 163.545 33.58 159.255 37.4765C154.964 41.3731 153.738 45.8825 153.738 52.8C153.738 59.7174 160.437 68.2986 161.641 69.612C164.969 72.2605 168.817 74.1775 172.936 75.2379C180.538 76.2602 188.258 75.9863 195.768 74.428L194.674 63.1105ZM178.168 59.805H194.323L193.426 48.6627H176.723L178.168 59.805Z" fill="white"/>
<path d="M225.671 31.5662H262.206L263.148 42.5115H226.656L225.671 31.5662Z" fill="white"/>
<path d="M266.191 75.413H229.655L227.138 47.8965H263.629L264.636 58.8418H243.49L243.862 62.9354H264.877L266.191 75.413Z" fill="white"/>
<path d="M70.4659 31.5662H107.001L107.943 42.5115H71.451L70.4659 31.5662Z" fill="white"/>
<path d="M110.986 75.413H74.4282L71.9546 47.8965H108.424L109.431 58.8418H88.285L88.6572 62.9354H109.76L110.986 75.413Z" fill="white"/>
<path d="M138.546 31.9163L125.609 31.6755L133.27 47.5244H120.136L112.605 75.4131H162.954L138.546 31.9163ZM128.761 63.4827C129.746 60.1991 132.482 52.5373 133.577 48.1592C134.299 49.4945 141.304 63.4827 141.304 63.4827H128.761Z" fill="white"/>
<path d="M197.41 75.4132L193.294 31.6318H207.961L210.807 63.0887H227.247L228.254 75.4788L197.41 75.4132Z" fill="white"/>
<path d="M275.822 31.6755L276.72 42.6209H287.337L290.533 75.4569H304.937L301.894 42.6209H311.023L309.819 31.6755H275.822Z" fill="white"/>
<path d="M311.001 31.5662L314.941 75.3475H329.454L325.514 31.5662H311.001Z" fill="white"/>
<path d="M354.3 35.3092C350.505 32.6716 345.932 31.3913 341.319 31.6753H327.44L328.25 42.6206H342.961C344.865 42.6206 346.069 42.2485 346.901 43.4087C347.329 43.9406 347.553 44.6075 347.533 45.2896C347.512 45.9717 347.25 46.6243 346.792 47.1301C346.316 47.4809 345.773 47.7315 345.198 47.867C344.622 48.0024 344.025 48.0198 343.442 47.9182H329.017L331.446 75.4347H345.872L344.581 61.162H344.887C350.229 61.162 354.191 59.8048 356.752 57.1342C358.09 55.585 359.053 53.7481 359.566 51.7662C360.078 49.7843 360.127 47.7109 359.707 45.7072C359.558 43.6981 359.001 41.7403 358.072 39.9528C357.142 38.1653 355.859 36.5854 354.3 35.3092Z" fill="white"/>
</g>
<defs>
<clipPath id="clip0_1911_3054">
<rect width="359.926" height="76.88" fill="white"/>
</clipPath>
</defs>
</svg>
