<svg width="1920" height="1080" viewBox="0 0 1920 1080" fill="none" xmlns="http://www.w3.org/2000/svg">
<g clip-path="url(#clip0_2474_5657)">
<rect width="1920" height="1080" fill="#2B343B"/>
<g opacity="0.3">
<path fill-rule="evenodd" clip-rule="evenodd" d="M2167.68 210.62C2253.99 268.777 2397.56 249.812 2441.4 344.187C2484.93 437.879 2404.04 540.937 2365.7 636.852C2332.36 720.269 2292.05 795.939 2233.59 864.148C2162.2 947.434 2098.17 1051.52 1990.84 1074.22C1878.44 1098 1747.83 1065.6 1666.9 984.044C1589.54 906.095 1618.89 777.988 1591.36 671.687C1568.18 582.153 1498.74 501.345 1518.51 411.004C1538.55 319.377 1627.76 266.258 1694.49 200.355C1769.98 125.811 1826.97 -0.665757 1933.06 1.63559C2040.39 3.96398 2078.65 150.624 2167.68 210.62Z" stroke="white"/>
<path fill-rule="evenodd" clip-rule="evenodd" d="M2143.05 245.82C2220.77 298.192 2350.05 281.113 2389.54 366.101C2428.74 450.473 2355.89 543.281 2321.37 629.655C2291.34 704.775 2255.04 772.918 2202.39 834.343C2138.11 909.344 2080.45 1003.07 1983.8 1023.52C1882.58 1044.94 1764.96 1015.76 1692.07 942.313C1622.41 872.117 1648.84 756.753 1624.05 661.025C1603.17 580.397 1540.64 507.627 1558.44 426.272C1576.5 343.759 1656.83 295.924 1716.92 236.576C1784.9 169.447 1836.23 55.5503 1931.76 57.6227C2028.41 59.7195 2062.87 191.791 2143.05 245.82Z" stroke="white"/>
<path fill-rule="evenodd" clip-rule="evenodd" d="M2113.22 288.438C2180.54 333.806 2292.54 319.011 2326.75 392.633C2360.7 465.722 2297.6 546.118 2267.69 620.942C2241.68 686.016 2210.23 745.046 2164.63 798.256C2108.94 863.228 2058.99 944.422 1975.27 962.136C1887.58 980.688 1785.69 955.41 1722.55 891.787C1662.21 830.979 1685.1 731.042 1663.63 648.117C1645.54 578.271 1591.37 515.232 1606.79 444.758C1622.43 373.279 1692.02 331.841 1744.08 280.43C1802.97 222.278 1847.43 123.613 1930.19 125.408C2013.91 127.225 2043.76 241.634 2113.22 288.438Z" stroke="white"/>
<path fill-rule="evenodd" clip-rule="evenodd" d="M2079.17 337.08C2134.63 374.455 2226.9 362.267 2255.08 422.917C2283.05 483.127 2231.06 549.357 2206.43 610.996C2185 664.604 2159.09 713.233 2121.52 757.068C2075.65 810.591 2034.5 877.479 1965.53 892.072C1893.29 907.354 1809.36 886.53 1757.34 834.118C1707.63 784.025 1726.49 701.697 1708.8 633.383C1693.9 575.844 1649.28 523.914 1661.98 465.857C1674.86 406.973 1732.19 372.836 1775.08 330.484C1823.59 282.578 1860.22 201.299 1928.39 202.778C1997.37 204.274 2021.95 298.524 2079.17 337.08Z" stroke="white"/>
<path fill-rule="evenodd" clip-rule="evenodd" d="M2048.85 380.399C2093.75 410.654 2168.44 400.788 2191.25 449.885C2213.9 498.627 2171.81 552.242 2151.87 602.14C2134.53 645.537 2113.55 684.903 2083.14 720.388C2046 763.716 2012.69 817.864 1956.86 829.677C1898.38 842.049 1830.43 825.191 1788.33 782.762C1748.08 742.21 1763.35 675.564 1749.03 620.263C1736.97 573.684 1700.84 531.644 1711.13 484.646C1721.56 436.978 1767.96 409.344 1802.68 375.058C1841.95 336.278 1871.6 270.48 1926.79 271.677C1982.63 272.889 2002.53 349.186 2048.85 380.399Z" stroke="white"/>
<path fill-rule="evenodd" clip-rule="evenodd" d="M2013.83 430.444C2046.52 452.474 2100.91 445.29 2117.52 481.041C2134.01 516.533 2103.36 555.574 2088.84 591.908C2076.21 623.508 2060.94 652.173 2038.79 678.012C2011.75 709.563 1987.49 748.991 1946.84 757.593C1904.26 766.601 1854.78 754.326 1824.12 723.431C1794.82 693.903 1805.93 645.373 1795.51 605.104C1786.72 571.187 1760.42 540.576 1767.91 506.353C1775.5 471.643 1809.29 451.52 1834.57 426.555C1863.17 398.316 1884.76 350.405 1924.95 351.277C1965.6 352.159 1980.1 407.716 2013.83 430.444Z" stroke="white"/>
<path fill-rule="evenodd" clip-rule="evenodd" d="M1985.1 471.484C2007.79 486.77 2045.52 481.785 2057.05 506.591C2068.49 531.218 2047.23 558.307 2037.15 583.518C2028.39 605.444 2017.79 625.333 2002.43 643.262C1983.66 665.153 1966.83 692.511 1938.62 698.48C1909.08 704.73 1874.75 696.213 1853.47 674.776C1833.14 654.288 1840.85 620.615 1833.62 592.674C1827.52 569.14 1809.27 547.9 1814.47 524.154C1819.74 500.07 1843.18 486.108 1860.73 468.785C1880.57 449.192 1895.55 415.948 1923.43 416.552C1951.64 417.164 1961.7 455.714 1985.1 471.484Z" stroke="white"/>
<path fill-rule="evenodd" clip-rule="evenodd" d="M1954.91 514.616C1967.08 522.814 1987.32 520.141 1993.5 533.444C1999.63 546.651 1988.23 561.179 1982.83 574.699C1978.13 586.458 1972.44 597.124 1964.2 606.739C1954.14 618.479 1945.12 633.151 1929.99 636.352C1914.14 639.704 1895.73 635.136 1884.32 623.64C1873.42 612.652 1877.56 594.594 1873.68 579.609C1870.41 566.988 1860.62 555.598 1863.4 542.863C1866.23 529.947 1878.81 522.459 1888.21 513.169C1898.85 502.662 1906.89 484.833 1921.84 485.158C1936.97 485.486 1942.36 506.159 1954.91 514.616Z" stroke="white"/>
<path fill-rule="evenodd" clip-rule="evenodd" d="M1941.22 534.179C1948.62 539.162 1960.92 537.537 1964.68 545.623C1968.4 553.651 1961.47 562.481 1958.19 570.699C1955.33 577.847 1951.88 584.33 1946.87 590.174C1940.75 597.311 1935.27 606.229 1926.07 608.174C1916.44 610.212 1905.25 607.435 1898.31 600.447C1891.69 593.769 1894.2 582.792 1891.84 573.684C1889.86 566.013 1883.91 559.089 1885.6 551.348C1887.32 543.497 1894.96 538.946 1900.68 533.299C1907.15 526.912 1912.03 516.075 1921.12 516.273C1930.32 516.472 1933.59 529.038 1941.22 534.179Z" stroke="white"/>
<path fill-rule="evenodd" clip-rule="evenodd" d="M183.674 187.015C269.979 245.172 413.549 226.207 457.393 320.582C500.921 414.274 420.028 517.332 381.693 613.247C348.353 696.665 308.038 772.334 249.578 840.543C178.197 923.83 114.164 1027.91 6.83658 1050.62C-105.564 1074.4 -236.174 1042 -317.112 960.439C-394.469 882.49 -365.116 754.383 -392.643 648.082C-415.828 558.548 -485.27 477.74 -465.503 387.4C-445.454 295.773 -356.251 242.653 -289.514 176.75C-214.026 102.206 -157.035 -24.2704 -50.9516 -21.969C56.3783 -19.6406 94.6401 127.019 183.674 187.015Z" stroke="white"/>
<path fill-rule="evenodd" clip-rule="evenodd" d="M159.038 222.215C236.757 274.587 366.047 257.508 405.53 342.496C444.728 426.869 371.881 519.676 337.36 606.05C307.336 681.171 271.031 749.314 218.386 810.738C154.105 885.74 96.4414 979.469 -0.210358 999.918C-101.431 1021.33 -219.049 992.153 -291.936 918.708C-361.598 848.513 -335.166 733.148 -359.955 637.42C-380.834 556.792 -443.367 484.022 -425.567 402.668C-407.513 320.155 -327.183 272.319 -267.083 212.971C-199.104 145.842 -147.782 31.9457 -52.2504 34.0181C44.4036 36.1149 78.8595 168.187 159.038 222.215Z" stroke="white"/>
<path fill-rule="evenodd" clip-rule="evenodd" d="M129.209 264.833C196.535 310.201 308.535 295.406 342.738 369.029C376.694 442.118 313.589 522.514 283.684 597.337C257.676 662.411 226.226 721.441 180.621 774.651C124.936 839.623 74.9841 920.817 -8.74219 938.532C-96.4262 957.083 -198.315 931.805 -261.455 868.182C-321.801 807.374 -298.903 707.438 -320.377 624.512C-338.464 554.666 -392.635 491.628 -377.215 421.153C-361.575 349.675 -291.988 308.236 -239.926 256.825C-181.038 198.673 -136.578 100.009 -53.8228 101.804C29.9055 103.62 59.7535 218.03 129.209 264.833Z" stroke="white"/>
<path fill-rule="evenodd" clip-rule="evenodd" d="M95.1641 313.476C150.627 350.85 242.892 338.662 271.068 399.312C299.041 459.523 247.056 525.753 222.42 587.392C200.994 641 175.086 689.629 137.517 733.463C91.6438 786.986 50.4934 853.874 -18.4801 868.467C-90.714 883.75 -174.65 862.926 -226.664 810.514C-276.377 760.42 -257.514 678.093 -275.204 609.779C-290.104 552.24 -334.73 500.309 -322.027 442.252C-309.143 383.368 -251.817 349.231 -208.928 306.879C-160.417 258.974 -123.791 177.694 -55.6174 179.173C13.3577 180.669 37.9465 274.919 95.1641 313.476Z" stroke="white"/>
<path fill-rule="evenodd" clip-rule="evenodd" d="M64.8455 356.794C109.744 387.049 184.434 377.183 207.244 426.281C229.889 475.022 187.805 528.637 167.862 578.535C150.517 621.932 129.544 661.299 99.1311 696.783C61.9957 740.112 28.6835 794.259 -27.1521 806.072C-85.6271 818.444 -153.575 801.586 -195.682 759.158C-235.926 718.606 -220.655 651.96 -234.976 596.658C-247.038 550.079 -283.164 508.04 -272.88 461.041C-262.45 413.374 -216.044 385.739 -181.324 351.454C-142.053 312.673 -112.404 246.876 -57.2155 248.073C-1.37861 249.284 18.5265 325.582 64.8455 356.794Z" stroke="white"/>
<path fill-rule="evenodd" clip-rule="evenodd" d="M29.8189 406.839C62.5125 428.87 116.899 421.686 133.509 457.437C149.998 492.929 119.354 531.969 104.832 568.304C92.2023 599.904 76.9301 628.569 54.7845 654.408C27.7438 685.958 3.48702 725.386 -37.1706 733.988C-79.7501 742.997 -129.228 730.722 -159.888 699.826C-189.192 670.298 -178.073 621.769 -188.501 581.5C-197.284 547.583 -223.589 516.971 -216.101 482.748C-208.507 448.038 -174.715 427.916 -149.434 402.95C-120.838 374.712 -99.248 326.8 -59.0618 327.672C-18.4032 328.554 -3.90895 384.111 29.8189 406.839Z" stroke="white"/>
<path fill-rule="evenodd" clip-rule="evenodd" d="M1.09506 447.879C23.7799 463.165 61.5169 458.18 73.0414 482.987C84.4825 507.613 63.22 534.702 53.1438 559.913C44.3805 581.839 33.7837 601.729 18.4178 619.657C-0.344769 641.549 -17.1756 668.906 -45.3864 674.875C-74.9307 681.126 -109.261 672.609 -130.535 651.172C-150.869 630.683 -143.153 597.01 -150.389 569.069C-156.483 545.535 -174.735 524.295 -169.54 500.549C-164.27 476.465 -140.823 462.503 -123.281 445.181C-103.44 425.587 -88.4595 392.343 -60.5758 392.948C-32.3644 393.56 -22.3074 432.109 1.09506 447.879Z" stroke="white"/>
<path fill-rule="evenodd" clip-rule="evenodd" d="M-29.0937 491.012C-16.9281 499.21 3.30984 496.536 9.4903 509.84C15.626 523.047 4.22315 537.574 -1.18057 551.094C-5.88023 562.853 -11.5632 573.52 -19.8037 583.134C-29.8659 594.875 -38.892 609.546 -54.0211 612.747C-69.8654 616.099 -88.2764 611.532 -99.6855 600.035C-110.59 589.047 -106.452 570.989 -110.333 556.005C-113.601 543.384 -123.389 531.993 -120.603 519.258C-117.777 506.342 -105.203 498.855 -95.7953 489.565C-85.1544 479.057 -77.1207 461.229 -62.1671 461.553C-47.0376 461.881 -41.6442 482.555 -29.0937 491.012Z" stroke="white"/>
<path fill-rule="evenodd" clip-rule="evenodd" d="M-42.7853 510.574C-35.3906 515.557 -23.0892 513.932 -19.3325 522.019C-15.603 530.046 -22.5341 538.876 -25.8187 547.095C-28.6753 554.242 -32.1296 560.726 -37.1385 566.57C-43.2547 573.706 -48.7412 582.624 -57.9372 584.57C-67.5679 586.607 -78.7589 583.831 -85.6938 576.843C-92.3219 570.164 -89.8069 559.188 -92.1655 550.079C-94.1521 542.408 -100.102 535.484 -98.4082 527.744C-96.6904 519.893 -89.0473 515.341 -83.3291 509.695C-76.8612 503.308 -71.978 492.471 -62.8886 492.668C-53.6924 492.867 -50.414 505.434 -42.7853 510.574Z" stroke="white"/>
</g>
</g>
<defs>
<clipPath id="clip0_2474_5657">
<rect width="1920" height="1080" fill="white"/>
</clipPath>
</defs>
</svg>
